<svg width="50" height="50" viewBox="0 0 50 50" fill="none" xmlns="http://www.w3.org/2000/svg">
<path d="M9.6875 2.1875C9.83304 1.99344 10.0218 1.83594 10.2387 1.72746C10.4557 1.61898 10.6949 1.5625 10.9375 1.5625H39.0625C39.3051 1.5625 39.5443 1.61898 39.7613 1.72746C39.9782 1.83594 40.167 1.99344 40.3125 2.1875L49.6125 14.6062C50.0781 15.1844 50.1 16.0125 49.6437 16.6187L26.25 47.8125C26.1045 48.0066 25.9157 48.1641 25.6988 48.2725C25.4818 48.381 25.2426 48.4375 25 48.4375C24.7574 48.4375 24.5182 48.381 24.3012 48.2725C24.0843 48.1641 23.8955 48.0066 23.75 47.8125L0.3125 16.5625C0.109653 16.292 0 15.9631 0 15.625C0 15.2869 0.109653 14.958 0.3125 14.6875L9.6875 2.1875ZM45.2687 14.0156L39.625 6.48438L37.2 14.025L45.2687 14.0156ZM33.9156 14.0281L36.9188 4.6875H13.0812L16.0906 14.0469L33.9156 14.0281ZM17.0938 17.1719L25 41.7687L32.9125 17.1562L17.0938 17.1719ZM12.8094 14.05L10.3719 6.48125L4.69063 14.0594L12.8094 14.05ZM4.68437 17.1875L20.6625 38.4906L13.8125 17.1781L4.6875 17.1875H4.68437ZM29.3375 38.4906L45.3469 17.1469L36.1969 17.1531L29.3375 38.4906Z" fill="url(#paint0_linear_676_432)"/>
<defs>
<linearGradient id="paint0_linear_676_432" x1="4.6875" y1="-1.5625" x2="37.5" y2="48.4375" gradientUnits="userSpaceOnUse">
<stop stop-color="#D19600"/>
<stop offset="0.260417" stop-color="#E2B030"/>
<stop offset="0.598958" stop-color="#FFF3D5"/>
<stop offset="1" stop-color="#E1A100"/>
</linearGradient>
</defs>
</svg>
