<svg width="50" height="50" viewBox="0 0 50 50" fill="none" xmlns="http://www.w3.org/2000/svg">
<g clip-path="url(#clip0_676_438)">
<path d="M19.294 3.70013C19.7864 2.59828 20.5872 1.66253 21.5998 1.00591C22.6124 0.349288 23.7934 -0.00012207 25.0003 -0.00012207C26.2071 -0.00012207 27.3881 0.349288 28.4007 1.00591C29.4133 1.66253 30.2142 2.59828 30.7065 3.70013C31.6838 2.99081 32.8456 2.5798 34.0516 2.51679C35.2575 2.45378 36.4559 2.74147 37.5018 3.34507C38.5476 3.94868 39.3963 4.84234 39.9451 5.91802C40.4938 6.9937 40.7192 8.20532 40.594 9.40638C41.7951 9.28116 43.0067 9.50656 44.0824 10.0553C45.158 10.6041 46.0517 11.4527 46.6553 12.4986C47.2589 13.5445 47.5466 14.7429 47.4836 15.9488C47.4206 17.1547 47.0096 18.3166 46.3003 19.2939C47.4021 19.7862 48.3379 20.5871 48.9945 21.5996C49.6511 22.6122 50.0005 23.7933 50.0005 25.0001C50.0005 26.207 49.6511 27.388 48.9945 28.4006C48.3379 29.4132 47.4021 30.214 46.3003 30.7064C47.0096 31.6837 47.4206 32.8455 47.4836 34.0515C47.5466 35.2574 47.2589 36.4557 46.6553 37.5016C46.0517 38.5475 45.158 39.3962 44.0824 39.9449C43.0067 40.4937 41.7951 40.7191 40.594 40.5939C40.7192 41.7949 40.4938 43.0066 39.9451 44.0822C39.3963 45.1579 38.5476 46.0516 37.5018 46.6552C36.4559 47.2588 35.2575 47.5465 34.0516 47.4835C32.8456 47.4205 31.6838 47.0094 30.7065 46.3001C30.2142 47.402 29.4133 48.3377 28.4007 48.9944C27.3881 49.651 26.2071 50.0004 25.0003 50.0004C23.7934 50.0004 22.6124 49.651 21.5998 48.9944C20.5872 48.3377 19.7864 47.402 19.294 46.3001C18.3167 47.0094 17.1549 47.4205 15.9489 47.4835C14.743 47.5465 13.5446 47.2588 12.4988 46.6552C11.4529 46.0516 10.6042 45.1579 10.0555 44.0822C9.50668 43.0066 9.28128 41.7949 9.4065 40.5939C8.20544 40.7191 6.99382 40.4937 5.91814 39.9449C4.84247 39.3962 3.9488 38.5475 3.34519 37.5016C2.74159 36.4557 2.4539 35.2574 2.51691 34.0515C2.57992 32.8455 2.99094 31.6837 3.70025 30.7064C2.5984 30.214 1.66265 29.4132 1.00603 28.4006C0.34941 27.388 0 26.207 0 25.0001C0 23.7933 0.34941 22.6122 1.00603 21.5996C1.66265 20.5871 2.5984 19.7862 3.70025 19.2939C2.99094 18.3166 2.57992 17.1547 2.51691 15.9488C2.4539 14.7429 2.74159 13.5445 3.34519 12.4986C3.9488 11.4527 4.84247 10.6041 5.91814 10.0553C6.99382 9.50656 8.20544 9.28116 9.4065 9.40638C9.28128 8.20532 9.50668 6.9937 10.0555 5.91802C10.6042 4.84234 11.4529 3.94868 12.4988 3.34507C13.5446 2.74147 14.743 2.45378 15.9489 2.51679C17.1549 2.5798 18.3167 2.99081 19.294 3.70013ZM25.0003 3.12513C24.5824 3.12578 24.1689 3.21022 23.7842 3.37347C23.3996 3.53672 23.0516 3.77546 22.7608 4.07556C22.47 4.37566 22.2424 4.73102 22.0914 5.12064C21.9403 5.51026 21.869 5.9262 21.8815 6.34388L21.9128 6.62826C21.9503 6.86888 22.0034 7.17826 22.0815 7.55326C22.2346 8.30638 22.4628 9.24701 22.7471 10.3251C23.3159 12.4751 24.0846 15.0533 24.8596 17.5564L25.0003 18.0064L25.1409 17.5564C25.9159 15.0564 26.6846 12.4751 27.2534 10.3251C27.5378 9.24701 27.7659 8.30638 27.919 7.55326C28.0014 7.15394 28.0681 6.75155 28.119 6.34701L28.1253 6.25013C28.1253 5.42133 27.796 4.62647 27.21 4.04042C26.6239 3.45437 25.8291 3.12513 25.0003 3.12513ZM6.25025 28.1251L6.344 28.1189L6.62838 28.0876C6.93834 28.0407 7.24681 27.9844 7.55338 27.9189C8.3065 27.7658 9.24713 27.5376 10.3253 27.2533C12.7494 26.5971 15.1603 25.8928 17.5565 25.1408L18.0065 25.0001L17.5565 24.8595C15.1603 24.1075 12.7494 23.4031 10.3253 22.747C9.40753 22.4999 8.48322 22.278 7.55338 22.0814C7.15406 21.999 6.75167 21.9323 6.34713 21.8814L6.25025 21.8751C5.42145 21.8751 4.6266 22.2044 4.04054 22.7904C3.45449 23.3765 3.12525 24.1713 3.12525 25.0001C3.12525 25.8289 3.45449 26.6238 4.04054 27.2098C4.6266 27.7959 5.42145 28.1251 6.25025 28.1251ZM28.1253 43.7501L28.119 43.6564C28.0681 43.2518 28.0014 42.8495 27.919 42.4501C27.7229 41.5191 27.501 40.5938 27.2534 39.6751C26.5972 37.2509 25.8929 34.84 25.1409 32.4439L25.0003 31.9939L24.8596 32.4439C24.0846 34.9439 23.3159 37.5251 22.7471 39.6751C22.4628 40.7533 22.2346 41.6939 22.0815 42.447C21.9991 42.8463 21.9324 43.2487 21.8815 43.6533L21.8753 43.7501C21.8753 44.5789 22.2045 45.3738 22.7905 45.9598C23.3766 46.5459 24.1715 46.8751 25.0003 46.8751C25.8291 46.8751 26.6239 46.5459 27.21 45.9598C27.796 45.3738 28.1253 44.5789 28.1253 43.7501ZM10.3253 37.0814L10.4034 37.0283C10.729 36.7824 11.0449 36.5238 11.3503 36.2533C11.9253 35.7408 12.6253 35.0751 13.4159 34.2876C15.1883 32.5078 16.9251 30.6928 18.6253 28.8439L18.9471 28.497L18.4878 28.6001C16.0356 29.1476 13.5945 29.7435 11.1659 30.3876C10.0909 30.6783 9.16588 30.9501 8.43463 31.1939C8.04691 31.3228 7.66433 31.4666 7.28775 31.6251L7.20338 31.6689C6.84511 31.8726 6.53067 32.1451 6.27817 32.4708C6.02566 32.7966 5.84008 33.169 5.7321 33.5667C5.62412 33.9644 5.59587 34.3796 5.64899 34.7883C5.70211 35.197 5.83555 35.5911 6.04162 35.948C6.24768 36.3049 6.52231 36.6176 6.84969 36.8679C7.17707 37.1182 7.55074 37.3013 7.94917 37.4067C8.34761 37.512 8.76294 37.5375 9.17127 37.4817C9.57959 37.4259 9.97284 37.2898 10.3284 37.0814H10.3253ZM14.0628 43.9439C14.7805 44.3583 15.6335 44.4706 16.434 44.2561C17.2345 44.0416 17.9171 43.5179 18.3315 42.8001L18.3753 42.7158C18.4065 42.6533 18.4409 42.5658 18.4878 42.4533C18.6027 42.1617 18.709 41.8667 18.8065 41.5689C19.0503 40.8408 19.3221 39.9126 19.6128 38.8376C20.2571 36.4091 20.8531 33.968 21.4003 31.5158L21.5034 31.0564L21.1596 31.3751C19.3098 33.0754 17.4938 34.8122 15.7128 36.5845C15.0393 37.2544 14.3839 37.9421 13.7471 38.647C13.4766 38.9535 13.2181 39.2704 12.9721 39.597L12.919 39.6751C12.5046 40.3929 12.3923 41.2458 12.6068 42.0464C12.8213 42.8469 13.345 43.5295 14.0628 43.9439ZM42.8003 18.3314C43.5121 17.914 44.0301 17.232 44.241 16.4343C44.4519 15.6365 44.3387 14.7876 43.9261 14.073C43.5135 13.3583 42.835 12.8359 42.0386 12.6197C41.2422 12.4035 40.3926 12.511 39.6753 12.9189L39.5971 12.972C39.2714 13.2178 38.9555 13.4763 38.6503 13.747C37.9439 14.3833 37.2551 15.0387 36.5846 15.7126C34.8123 17.4926 33.0755 19.3075 31.3753 21.1564L31.0565 21.5033L31.5159 21.4001C33.9671 20.8529 36.4071 20.2569 38.8346 19.6126C39.9128 19.322 40.8409 19.0501 41.569 18.8064C41.9568 18.6777 42.3394 18.5338 42.7159 18.3751C42.7444 18.3614 42.7726 18.3468 42.8003 18.3314ZM35.9378 6.05638C35.22 5.642 34.367 5.5297 33.5665 5.7442C32.766 5.95869 32.0834 6.4824 31.669 7.20013L31.6253 7.28451C31.594 7.34701 31.5596 7.43451 31.5128 7.54701C31.3978 7.83859 31.2915 8.13351 31.194 8.43138C30.9503 9.1595 30.6784 10.0876 30.3878 11.1658C29.7435 13.5932 29.1475 16.0333 28.6003 18.4845L28.4971 18.9439L28.8409 18.6251C30.6907 16.9248 32.5067 15.188 34.2878 13.4158C35.0753 12.6251 35.7409 11.9251 36.2534 11.3533C36.524 11.0468 36.7826 10.7299 37.0284 10.4033L37.0815 10.3251C37.4959 9.60738 37.6082 8.75443 37.3937 7.95388C37.1792 7.15334 36.6555 6.47079 35.9378 6.05638ZM43.7503 28.1251C44.5791 28.1251 45.3739 27.7959 45.96 27.2098C46.546 26.6238 46.8753 25.8289 46.8753 25.0001C46.8753 24.1713 46.546 23.3765 45.96 22.7904C45.3739 22.2044 44.5791 21.8751 43.7503 21.8751L43.6565 21.8814C43.252 21.9323 42.8496 21.999 42.4503 22.0814C41.694 22.2345 40.7534 22.4626 39.6753 22.747C37.5253 23.3158 34.9471 24.0845 32.444 24.8595L31.994 25.0001L32.444 25.1408C34.944 25.9158 37.5253 26.6845 39.6753 27.2533C40.7534 27.5376 41.694 27.7658 42.4471 27.9189C42.8464 28.0013 43.2488 28.068 43.6534 28.1189L43.7503 28.1251ZM6.0565 14.0626C5.84778 14.4249 5.71388 14.8254 5.66274 15.2404C5.6116 15.6554 5.64425 16.0764 5.75877 16.4785C5.87329 16.8807 6.06735 17.2557 6.32944 17.5815C6.59154 17.9073 6.91635 18.1772 7.28463 18.3751L7.54713 18.4845C7.77213 18.5783 8.06588 18.6845 8.4315 18.8064C9.15963 19.0501 10.0878 19.322 11.1628 19.6126C13.5913 20.2568 16.0324 20.8527 18.4846 21.4001L18.944 21.5033L18.6221 21.1564C16.923 19.3075 15.1872 17.4925 13.4159 15.7126C12.7464 15.0388 12.0586 14.3833 11.3534 13.747C11.047 13.4763 10.7301 13.2178 10.4034 12.972L10.3253 12.9189C9.60751 12.5045 8.75455 12.3922 7.95401 12.6067C7.15347 12.8212 6.47092 13.3449 6.0565 14.0626ZM12.919 10.3251L12.9721 10.4033C13.218 10.7289 13.4765 11.0448 13.7471 11.3501C14.2596 11.9251 14.9253 12.6251 15.7128 13.4158C17.4926 15.1881 19.3076 16.9249 21.1565 18.6251L21.5034 18.9439L21.4003 18.4845C20.853 16.0333 20.2571 13.5932 19.6128 11.1658C19.3221 10.0876 19.0503 9.1595 18.8065 8.43138C18.6778 8.0436 18.5339 7.66102 18.3753 7.28451L18.3315 7.20013C18.1278 6.84186 17.8553 6.52743 17.5295 6.27492C17.2038 6.02241 16.8314 5.83683 16.4337 5.72885C16.0359 5.62087 15.6208 5.59263 15.2121 5.64575C14.8034 5.69887 14.4093 5.8323 14.0524 6.03837C13.6954 6.24444 13.3828 6.51907 13.1325 6.84645C12.8821 7.17382 12.699 7.54749 12.5937 7.94592C12.4884 8.34436 12.4629 8.7597 12.5187 9.16802C12.5745 9.57635 12.7106 9.9696 12.919 10.3251ZM43.944 35.9376C44.3584 35.2199 44.4707 34.3669 44.2562 33.5664C44.0417 32.7658 43.518 32.0833 42.8003 31.6689L42.7159 31.6251C42.3394 31.4664 41.9568 31.3226 41.569 31.1939C40.8409 30.9501 39.9128 30.6783 38.8346 30.3876C36.4071 29.7433 33.9671 29.1474 31.5159 28.6001L31.0565 28.497L31.3753 28.8439C33.0755 30.6928 34.8123 32.5077 36.5846 34.2876C37.3753 35.0751 38.0753 35.7408 38.6471 36.2533C38.9534 36.5241 39.2703 36.7826 39.5971 37.0283L39.6753 37.0814C40.393 37.4958 41.246 37.6081 42.0465 37.3936C42.847 37.1791 43.5296 36.6554 43.944 35.9376ZM31.669 42.8001C32.0863 43.512 32.7683 44.0299 33.5661 44.2409C34.3639 44.4518 35.2128 44.3386 35.9274 43.926C36.6421 43.5134 37.1645 42.8348 37.3807 42.0385C37.5969 41.2421 37.4894 40.3925 37.0815 39.6751L37.0284 39.597C36.7823 39.2715 36.5238 38.9557 36.2534 38.6501C35.6171 37.9438 34.9616 37.255 34.2878 36.5845C32.508 34.812 30.693 33.0752 28.844 31.3751L28.4971 31.0564L28.6003 31.5158C29.1475 33.967 29.7434 36.407 30.3878 38.8345C30.6784 39.9126 30.9503 40.8408 31.194 41.5689C31.3227 41.9567 31.4665 42.3393 31.6253 42.7158C31.6391 42.7443 31.6537 42.7724 31.669 42.8001ZM25.0003 29.6876C26.2435 29.6876 27.4357 29.1938 28.3148 28.3147C29.1939 27.4356 29.6878 26.2433 29.6878 25.0001C29.6878 23.7569 29.1939 22.5646 28.3148 21.6856C27.4357 20.8065 26.2435 20.3126 25.0003 20.3126C23.7571 20.3126 22.5648 20.8065 21.6857 21.6856C20.8066 22.5646 20.3128 23.7569 20.3128 25.0001C20.3128 26.2433 20.8066 27.4356 21.6857 28.3147C22.5648 29.1938 23.7571 29.6876 25.0003 29.6876Z" fill="url(#paint0_linear_676_438)"/>
</g>
<defs>
<linearGradient id="paint0_linear_676_438" x1="4.68997" y1="-3.33349" x2="40.5306" y2="47.8939" gradientUnits="userSpaceOnUse">
<stop stop-color="#D19600"/>
<stop offset="0.260417" stop-color="#E2B030"/>
<stop offset="0.598958" stop-color="#FFF3D5"/>
<stop offset="1" stop-color="#E1A100"/>
</linearGradient>
<clipPath id="clip0_676_438">
<rect width="50" height="50" fill="white"/>
</clipPath>
</defs>
</svg>
