<svg width="36" height="36" viewBox="0 0 36 36" fill="none" xmlns="http://www.w3.org/2000/svg">
<rect width="36" height="36" fill="#ABF1BA"/>
<mask id="mask0_703_439" style="mask-type:alpha" maskUnits="userSpaceOnUse" x="0" y="0" width="36" height="36">
<rect width="36" height="36" fill="#D9D9D9"/>
</mask>
<g mask="url(#mask0_703_439)">
<path d="M30.9876 35.4999C29.1217 32.2856 26.135 29.873 22.6001 28.7249C24.2944 27.7173 25.6111 26.1814 26.3479 24.3529C27.0846 22.5245 27.2007 20.5047 26.6782 18.604C26.1558 16.7032 25.0237 15.0265 23.4559 13.8315C21.8881 12.6365 19.9714 11.9893 18.0001 11.9893C16.0288 11.9893 14.112 12.6365 12.5443 13.8315C10.9765 15.0265 9.84439 16.7032 9.32194 18.604C8.79948 20.5047 8.91554 22.5245 9.65229 24.3529C10.389 26.1814 11.7057 27.7173 13.4001 28.7249C9.86521 29.873 6.87851 32.2856 5.01259 35.4999C4.93433 35.6134 4.88039 35.7419 4.85417 35.8773C4.82796 36.0127 4.83003 36.152 4.86025 36.2866C4.89047 36.4211 4.9482 36.548 5.0298 36.6591C5.1114 36.7703 5.2151 36.8634 5.33441 36.9326C5.45371 37.0017 5.58603 37.0455 5.72305 37.061C5.86006 37.0766 5.99882 37.0637 6.1306 37.023C6.26238 36.9824 6.38433 36.9149 6.48878 36.8249C6.59324 36.7349 6.67795 36.6242 6.73759 36.4999C7.88057 34.5249 9.52282 32.8851 11.4996 31.7452C13.4764 30.6052 15.7182 30.0052 18.0001 30.0052C20.282 30.0052 22.5238 30.6052 24.5006 31.7452C26.4774 32.8851 28.1196 34.5249 29.2626 36.4999C29.3222 36.6242 29.4069 36.7349 29.5114 36.8249C29.6158 36.9149 29.7378 36.9824 29.8696 37.023C30.0014 37.0637 30.1401 37.0766 30.2771 37.061C30.4141 37.0455 30.5465 37.0017 30.6658 36.9326C30.7851 36.8634 30.8888 36.7703 30.9704 36.6591C31.052 36.548 31.1097 36.4211 31.1399 36.2866C31.1701 36.152 31.1722 36.0127 31.146 35.8773C31.1198 35.7419 31.0659 35.6134 30.9876 35.4999V35.4999ZM11.0001 20.9999C11.0001 19.6154 11.4106 18.262 12.1798 17.1109C12.949 15.9598 14.0422 15.0625 15.3213 14.5327C16.6004 14.0029 18.0079 13.8643 19.3657 14.1344C20.7236 14.4045 21.9709 15.0712 22.9498 16.0501C23.9288 17.0291 24.5955 18.2764 24.8656 19.6343C25.1357 20.9921 24.9971 22.3996 24.4672 23.6787C23.9374 24.9578 23.0402 26.051 21.8891 26.8202C20.7379 27.5893 19.3846 27.9999 18.0001 27.9999C16.1436 27.9999 14.3631 27.2624 13.0503 25.9496C11.7376 24.6369 11.0001 22.8564 11.0001 20.9999Z" fill="black"/>
</g>
</svg>
