<svg width="122" height="39" viewBox="0 0 122 39" fill="none" xmlns="http://www.w3.org/2000/svg">
<path d="M60.8085 31.28L60.4485 33.12C60.0752 33.12 59.7818 33.1067 59.5685 33.08C57.8085 33.0267 56.4618 33 55.5285 33L50.5285 33.08L50.8885 31.28C51.8752 31.2533 52.6085 31.1333 53.0885 30.92C53.5685 30.7067 53.8885 30.3067 54.0485 29.72C54.2352 29.1333 54.3285 28.2267 54.3285 27V22.08C52.5685 22.5333 50.9818 22.76 49.5685 22.76C47.1152 22.76 45.1818 22.1467 43.7685 20.92C42.3818 19.6933 41.6885 17.9733 41.6885 15.76V11.4C41.6885 10.5467 41.6085 9.97333 41.4485 9.68C41.2885 9.38667 40.9552 9.24 40.4485 9.24L39.3285 9.32L39.2885 9.16L39.4885 7.4L43.4885 7.52C44.4218 7.52 45.8485 7.4 47.7685 7.16L47.6085 8.96C46.8085 9.09333 46.2352 9.25333 45.8885 9.44C45.5418 9.62667 45.3018 9.94667 45.1685 10.4C45.0618 10.8533 44.9952 11.5733 44.9685 12.56L44.9285 14.76C44.9018 16.7333 45.3818 18.24 46.3685 19.28C47.3552 20.2933 48.7952 20.8 50.6885 20.8L54.3285 20L54.3685 11.4C54.3685 10.5467 54.2618 9.97333 54.0485 9.68C53.8618 9.38667 53.4752 9.24 52.8885 9.24L51.5285 9.32L51.4485 9.16L51.7285 7.4C52.0218 7.42666 52.5552 7.45333 53.3285 7.48C54.1018 7.50667 54.8752 7.52 55.6485 7.52C56.4218 7.52 58.0218 7.4 60.4485 7.16L60.2885 8.96C59.3018 9.09333 58.6352 9.32 58.2885 9.64C57.9418 9.93333 57.7552 10.4667 57.7285 11.24C57.5685 14.3067 57.4352 17.5467 57.3285 20.96C57.2218 24.3733 57.1685 26.9733 57.1685 28.76C57.1685 29.72 57.2885 30.3733 57.5285 30.72C57.7685 31.0667 58.2352 31.24 58.9285 31.24C59.2485 31.24 59.8485 31.2 60.7285 31.12L60.8085 31.28ZM67.1948 31.52C68.1814 31.44 68.8614 31.3333 69.2348 31.2C69.6348 31.04 69.9014 30.76 70.0348 30.36C70.1681 29.96 70.2348 29.2667 70.2348 28.28V16.52C68.7414 16.5467 67.7014 16.64 67.1148 16.8C66.5281 16.9333 66.1148 17.24 65.8748 17.72C65.6614 18.1733 65.4614 19.0133 65.2748 20.24L63.5548 20.36C63.7948 18.6 63.9414 16.7733 63.9948 14.88L64.2348 14.6L66.9148 14.92H76.3548L79.0748 14.6L79.3148 14.88C79.3681 16 79.5148 17.7867 79.7548 20.24L78.0348 20.36C77.8214 19.1067 77.6081 18.2533 77.3948 17.8C77.1814 17.32 76.7948 17 76.2348 16.84C75.7014 16.68 74.7281 16.5733 73.3148 16.52C73.2081 17.64 73.1014 19.4933 72.9948 22.08C72.9148 24.64 72.8748 27.0933 72.8748 29.44C72.8748 30.1333 72.9948 30.6267 73.2348 30.92C73.5014 31.2133 73.9414 31.36 74.5548 31.36C75.2481 31.36 75.8081 31.3333 76.2348 31.28L76.3148 31.4L76.0348 33.12L74.9948 33.08L71.3948 33C70.1948 33 68.7148 33.0533 66.9548 33.16L67.1948 31.52ZM90.4882 33.48C88.8349 33.48 87.3682 33.12 86.0882 32.4C84.8082 31.6533 83.8215 30.6133 83.1282 29.28C82.4349 27.92 82.0882 26.3733 82.0882 24.64C82.0882 22.8533 82.4882 21.1733 83.2882 19.6C84.1149 18.0267 85.2082 16.7733 86.5682 15.84C87.9282 14.9067 89.3815 14.44 90.9282 14.44C92.8749 14.44 94.3549 14.9333 95.3682 15.92C96.3815 16.9067 96.8882 18.3467 96.8882 20.24C96.8882 21.0133 96.8082 21.6667 96.6482 22.2L96.1282 22.68H85.0882C85.0615 25.2667 85.5682 27.2667 86.6082 28.68C87.6749 30.0667 89.1549 30.76 91.0482 30.76C92.5415 30.76 94.1682 30.3467 95.9282 29.52L96.1682 29.6L96.6082 30.76C95.6482 31.4533 94.5815 32.08 93.4082 32.64C92.2615 33.2 91.2882 33.48 90.4882 33.48ZM92.4882 20.84C92.8882 20.7867 93.1549 20.6933 93.2882 20.56C93.4215 20.4267 93.4882 20.16 93.4882 19.76C93.4882 18.6933 93.1949 17.88 92.6082 17.32C92.0482 16.76 91.2349 16.48 90.1682 16.48C88.9149 16.48 87.8349 16.9067 86.9282 17.76C86.0482 18.6133 85.4882 19.76 85.2482 21.2L92.4882 20.84ZM119.33 31.56C119.33 33.4533 119.437 35.7067 119.65 38.32L117.93 38.44L117.29 35.12C117.13 34.32 116.824 33.76 116.37 33.44C115.944 33.1467 115.237 33 114.25 33H104.37C103.97 33 102.73 33.08 100.65 33.24L100.77 31.56C101.73 31.4 102.344 31.1867 102.61 30.92C102.877 30.6267 103.01 30.0533 103.01 29.2V18.08C103.01 17.4667 102.93 17.0667 102.77 16.88C102.61 16.6667 102.25 16.56 101.69 16.56L100.97 16.6L100.89 16.44L101.09 14.88C102.37 14.9333 103.277 14.96 103.81 14.96C105.33 14.96 106.824 14.88 108.29 14.72L108.13 16.4C107.49 16.48 107.037 16.5867 106.77 16.72C106.53 16.8267 106.357 17.0133 106.25 17.28C106.17 17.5467 106.104 18.0267 106.05 18.72C105.944 20.16 105.85 21.96 105.77 24.12C105.717 26.2533 105.69 28.08 105.69 29.6C105.69 30.24 105.784 30.68 105.97 30.92C106.184 31.1333 106.57 31.24 107.13 31.24H111.21C112.277 31.24 112.97 31.08 113.29 30.76C113.637 30.44 113.81 29.7733 113.81 28.76L113.85 18.04C113.85 17.4267 113.77 17.0267 113.61 16.84C113.45 16.6533 113.104 16.56 112.57 16.56C112.277 16.56 112.024 16.5733 111.81 16.6L111.69 16.44L111.93 14.88C113.157 14.9333 114.037 14.96 114.57 14.96C116.09 14.96 117.544 14.88 118.93 14.72L118.77 16.4C118.024 16.5067 117.53 16.6667 117.29 16.88C117.077 17.0667 116.944 17.4267 116.89 17.96C116.624 21.56 116.49 25.4533 116.49 29.64C116.49 30.2533 116.544 30.6667 116.65 30.88C116.784 31.0667 117.024 31.1733 117.37 31.2L119.05 31.28L119.33 31.56Z" fill="black"/>
<path d="M28.5 34H16.5V11.5C16.5 10.3065 16.9741 9.16193 17.818 8.31802C18.6619 7.47411 19.8065 7 21 7H28.5C28.8978 7 29.2794 7.15804 29.5607 7.43934C29.842 7.72064 30 8.10218 30 8.5V32.5C30 32.8978 29.842 33.2794 29.5607 33.5607C29.2794 33.842 28.8978 34 28.5 34ZM13.5 34H1.5C1.10218 34 0.720644 33.842 0.43934 33.5607C0.158035 33.2794 0 32.8978 0 32.5V8.5C0 8.10218 0.158035 7.72064 0.43934 7.43934C0.720644 7.15804 1.10218 7 1.5 7H9C10.1935 7 11.3381 7.47411 12.182 8.31802C13.0259 9.16193 13.5 10.3065 13.5 11.5V34ZM13.5 34H16.5V35.5C16.5 36.3284 15.8284 37 15 37C14.1716 37 13.5 36.3284 13.5 35.5V34Z" fill="black"/>
</svg>
