<svg width="24" height="24" viewBox="0 0 24 24" fill="none" xmlns="http://www.w3.org/2000/svg">
<g clip-path="url(#clip0_688_432)">
<path d="M10.56 20.16C5.24304 20.16 0.959961 15.8769 0.959961 10.56C0.959961 5.24304 5.24304 0.959961 10.56 0.959961C15.8769 0.959961 20.16 5.24304 20.16 10.56C20.16 15.8769 15.8769 20.16 10.56 20.16ZM10.56 2.43688C6.05535 2.43688 2.43688 6.05535 2.43688 10.56C2.43688 15.0646 6.05535 18.683 10.56 18.683C15.0646 18.683 18.683 15.0646 18.683 10.56C18.683 6.05535 15.0646 2.43688 10.56 2.43688Z" fill="#3D3D3D"/>
<path d="M17.3649 16.3199L24.0001 22.9552L22.9553 23.9999L16.3201 17.3647L17.3649 16.3199Z" fill="#3D3D3D"/>
</g>
<defs>
<clipPath id="clip0_688_432">
<rect width="24" height="24" fill="white"/>
</clipPath>
</defs>
</svg>
