<svg width="25" height="24" viewBox="0 0 25 24" fill="none" xmlns="http://www.w3.org/2000/svg">
<mask id="path-1-inside-1_901_124" fill="white">
<path fill-rule="evenodd" clip-rule="evenodd" d="M14.2132 16.0447C14.5005 15.8644 14.7697 15.6441 15.0128 15.3838L23.0942 6.73011C25.4817 4.17351 23.6688 0 20.1707 0H4.00793C0.509861 0 -1.30304 4.17351 1.08448 6.73011L9.16589 15.3838C9.409 15.6441 9.6782 15.8644 9.96545 16.0447V24H14.2132V16.0447Z"/>
</mask>
<path d="M15.0128 15.3838L13.9165 14.36L13.9165 14.36L15.0128 15.3838ZM14.2132 16.0447L13.4159 14.7742L12.7132 15.2152V16.0447H14.2132ZM23.0942 6.73011L24.1905 7.7539L23.0942 6.73011ZM1.08448 6.73011L2.18077 5.70632L2.18077 5.70632L1.08448 6.73011ZM9.16589 15.3838L10.2622 14.36L10.2622 14.36L9.16589 15.3838ZM9.96545 16.0447H11.4655V15.2152L10.7628 14.7742L9.96545 16.0447ZM9.96545 24H8.46545V25.5H9.96545V24ZM14.2132 24V25.5H15.7132V24H14.2132ZM13.9165 14.36C13.7626 14.5248 13.5941 14.6623 13.4159 14.7742L15.0106 17.3152C15.4069 17.0665 15.7767 16.7635 16.1091 16.4076L13.9165 14.36ZM21.9979 5.70632L13.9165 14.36L16.1091 16.4076L24.1905 7.7539L21.9979 5.70632ZM20.1707 1.5C22.357 1.5 23.4901 4.10844 21.9979 5.70632L24.1905 7.7539C27.4733 4.23858 24.9806 -1.5 20.1707 -1.5V1.5ZM4.00793 1.5H20.1707V-1.5H4.00793V1.5ZM2.18077 5.70632C0.688572 4.10844 1.82163 1.5 4.00793 1.5V-1.5C-0.801912 -1.5 -3.29465 4.23857 -0.0118076 7.7539L2.18077 5.70632ZM10.2622 14.36L2.18077 5.70632L-0.0118076 7.7539L8.0696 16.4076L10.2622 14.36ZM10.7628 14.7742C10.5846 14.6623 10.416 14.5248 10.2622 14.36L8.0696 16.4076C8.40196 16.7635 8.77181 17.0665 9.16809 17.3152L10.7628 14.7742ZM11.4655 24V16.0447H8.46545V24H11.4655ZM14.2132 22.5H9.96545V25.5H14.2132V22.5ZM12.7132 16.0447V24H15.7132V16.0447H12.7132Z" fill="#3D3D3D" mask="url(#path-1-inside-1_901_124)"/>
</svg>
