<svg width="50" height="50" viewBox="0 0 50 50" fill="none" xmlns="http://www.w3.org/2000/svg">
<g clip-path="url(#clip0_676_434)">
<path d="M25.0002 14.8563C23.6681 14.8563 22.349 15.1187 21.1184 15.6285C19.8877 16.1382 18.7694 16.8854 17.8275 17.8274C16.8855 18.7693 16.1384 19.8875 15.6286 21.1182C15.1188 22.3489 14.8564 23.668 14.8564 25.0001C14.8564 26.3322 15.1188 27.6512 15.6286 28.8819C16.1384 30.1126 16.8855 31.2309 17.8275 32.1728C18.7694 33.1147 19.8877 33.8619 21.1184 34.3717C22.349 34.8814 23.6681 35.1438 25.0002 35.1438C27.6905 35.1438 30.2706 34.0751 32.1729 32.1728C34.0752 30.2705 35.1439 27.6904 35.1439 25.0001C35.1439 22.3098 34.0752 19.7297 32.1729 17.8274C30.2706 15.925 27.6905 14.8563 25.0002 14.8563ZM17.9814 25.0001C17.9814 23.1386 18.7209 21.3533 20.0372 20.0371C21.3535 18.7208 23.1387 17.9813 25.0002 17.9813C26.8617 17.9813 28.6469 18.7208 29.9632 20.0371C31.2795 21.3533 32.0189 23.1386 32.0189 25.0001C32.0189 26.8616 31.2795 28.6468 29.9632 29.9631C28.6469 31.2793 26.8617 32.0188 25.0002 32.0188C23.1387 32.0188 21.3535 31.2793 20.0372 29.9631C18.7209 28.6468 17.9814 26.8616 17.9814 25.0001Z" fill="url(#paint0_linear_676_434)"/>
<path d="M30.6129 4.1969C28.966 -1.39685 21.0348 -1.39685 19.3879 4.1969L19.0941 5.19377C18.9791 5.58425 18.7782 5.94404 18.5061 6.24677C18.2339 6.5495 17.8975 6.7875 17.5215 6.94331C17.1454 7.09913 16.7392 7.16882 16.3327 7.14727C15.9263 7.12572 15.5297 7.01348 15.1723 6.81877L14.2598 6.31877C9.13477 3.53127 3.53164 9.13752 6.32227 14.2594L6.81914 15.1719C7.01384 15.5294 7.12608 15.9259 7.14763 16.3324C7.16918 16.7389 7.0995 17.145 6.94368 17.5211C6.78786 17.8972 6.54986 18.2336 6.24714 18.5057C5.94441 18.7778 5.58462 18.9788 5.19414 19.0938L4.19727 19.3875C-1.39648 21.0344 -1.39648 28.9656 4.19727 30.6125L5.19414 30.9063C5.58462 31.0213 5.94441 31.2222 6.24714 31.4943C6.54986 31.7665 6.78786 32.1029 6.94368 32.479C7.0995 32.855 7.16918 33.2612 7.14763 33.6677C7.12608 34.0742 7.01384 34.4707 6.81914 34.8282L6.31914 35.7407C3.53164 40.8657 9.13477 46.4719 14.2598 43.6782L15.1723 43.1813C15.5297 42.9866 15.9263 42.8743 16.3327 42.8528C16.7392 42.8312 17.1454 42.9009 17.5215 43.0567C17.8975 43.2126 18.2339 43.4506 18.5061 43.7533C18.7782 44.056 18.9791 44.4158 19.0941 44.8063L19.3879 45.8032C21.0348 51.3969 28.966 51.3969 30.6129 45.8032L30.9066 44.8063C31.0217 44.4158 31.2226 44.056 31.4947 43.7533C31.7668 43.4506 32.1033 43.2126 32.4793 43.0567C32.8554 42.9009 33.2615 42.8312 33.668 42.8528C34.0745 42.8743 34.471 42.9866 34.8285 43.1813L35.741 43.6813C40.866 46.4719 46.4723 40.8625 43.6785 35.7407L43.1816 34.8282C42.9869 34.4707 42.8747 34.0742 42.8531 33.6677C42.8316 33.2612 42.9013 32.855 43.0571 32.479C43.2129 32.1029 43.4509 31.7665 43.7536 31.4943C44.0564 31.2222 44.4162 31.0213 44.8066 30.9063L45.8035 30.6125C51.3973 28.9656 51.3973 21.0344 45.8035 19.3875L44.8066 19.0938C44.4162 18.9788 44.0564 18.7778 43.7536 18.5057C43.4509 18.2336 43.2129 17.8972 43.0571 17.5211C42.9013 17.145 42.8316 16.7389 42.8531 16.3324C42.8747 15.9259 42.9869 15.5294 43.1816 15.1719L43.6816 14.2594C46.4723 9.1344 40.8629 3.53127 35.741 6.3219L34.8285 6.81877C34.471 7.01348 34.0745 7.12572 33.668 7.14727C33.2615 7.16882 32.8554 7.09913 32.4793 6.94331C32.1033 6.7875 31.7668 6.5495 31.4947 6.24677C31.2226 5.94404 31.0217 5.58425 30.9066 5.19377L30.6129 4.1969ZM22.3848 5.08127C23.1535 2.4719 26.8473 2.4719 27.616 5.08127L27.9098 6.07815C28.1567 6.91592 28.588 7.6878 29.172 8.33721C29.7561 8.98662 30.478 9.4971 31.285 9.83121C32.092 10.1653 32.9635 10.3146 33.8356 10.2681C34.7078 10.2216 35.5585 9.98053 36.3254 9.56252L37.2348 9.06252C39.6223 7.76565 42.2348 10.375 40.9348 12.7656L40.4379 13.6781C40.0205 14.4451 39.78 15.2957 39.734 16.1677C39.688 17.0397 39.8377 17.9109 40.1721 18.7175C40.5065 19.5241 41.0171 20.2457 41.6666 20.8293C42.316 21.413 43.0878 21.844 43.9254 22.0906L44.9191 22.3844C47.5285 23.1531 47.5285 26.8469 44.9191 27.6157L43.9223 27.9094C43.0845 28.1563 42.3126 28.5876 41.6632 29.1717C41.0138 29.7557 40.5033 30.4777 40.1692 31.2846C39.8351 32.0916 39.6858 32.9631 39.7323 33.8353C39.7788 34.7074 40.0199 35.5581 40.4379 36.325L40.9379 37.2344C42.2348 39.6219 39.6254 42.2344 37.2348 40.9344L36.3254 40.4375C35.5583 40.0196 34.7074 39.7786 33.8351 39.7323C32.9627 39.686 32.0911 39.8355 31.2841 40.17C30.4771 40.5044 29.7552 41.0152 29.1713 41.665C28.5874 42.3148 28.1563 43.087 27.9098 43.925L27.616 44.9188C26.8473 47.5281 23.1535 47.5281 22.3848 44.9188L22.091 43.9219C21.844 43.0846 21.4127 42.3131 20.8289 41.664C20.2451 41.0149 19.5235 40.5047 18.7169 40.1706C17.9104 39.8365 17.0393 39.6871 16.1675 39.7333C15.2957 39.7795 14.4453 40.0201 13.6785 40.4375L12.766 40.9375C10.3785 42.2344 7.76602 39.625 9.06602 37.2344L9.56289 36.325C9.98149 35.558 10.2231 34.707 10.2698 33.8345C10.3166 32.962 10.1675 32.09 9.83334 31.2827C9.49918 30.4753 8.9885 29.753 8.33876 29.1687C7.68902 28.5845 6.91672 28.1531 6.07852 27.9063L5.08164 27.6125C2.47227 26.8438 2.47227 23.15 5.08164 22.3813L6.07852 22.0875C6.91541 21.8404 7.68645 21.4092 8.33521 20.8256C8.98397 20.242 9.49403 19.5207 9.82806 18.7146C10.1621 17.9084 10.3116 17.0378 10.2658 16.1663C10.2199 15.2949 9.97973 14.4448 9.56289 13.6781L9.06289 12.7656C7.76602 10.3781 10.3754 7.76565 12.766 9.06565L13.6785 9.56252C14.4453 9.97995 15.2957 10.2206 16.1675 10.2668C17.0393 10.3129 17.9104 10.1635 18.7169 9.82945C19.5235 9.49538 20.2451 8.98511 20.8289 8.33603C21.4127 7.68694 21.844 6.91548 22.091 6.07815L22.3848 5.08127Z" fill="url(#paint1_linear_676_434)"/>
</g>
<defs>
<linearGradient id="paint0_linear_676_434" x1="16.7594" y1="13.5038" x2="31.3016" y2="34.2891" gradientUnits="userSpaceOnUse">
<stop stop-color="#D19600"/>
<stop offset="0.260417" stop-color="#E2B030"/>
<stop offset="0.598958" stop-color="#FFF3D5"/>
<stop offset="1" stop-color="#E1A100"/>
</linearGradient>
<linearGradient id="paint1_linear_676_434" x1="4.69159" y1="-3.33154" x2="40.5296" y2="47.8921" gradientUnits="userSpaceOnUse">
<stop stop-color="#D19600"/>
<stop offset="0.260417" stop-color="#E2B030"/>
<stop offset="0.598958" stop-color="#FFF3D5"/>
<stop offset="1" stop-color="#E1A100"/>
</linearGradient>
<clipPath id="clip0_676_434">
<rect width="50" height="50" fill="white"/>
</clipPath>
</defs>
</svg>
